<?xml version="1.0" standalone="no"?>
<!DOCTYPE svg PUBLIC "-//W3C//DTD SVG 20010904//EN"
 "http://www.w3.org/TR/2001/REC-SVG-20010904/DTD/svg10.dtd">
<svg version="1.0" xmlns="http://www.w3.org/2000/svg"
 width="640.000000pt" height="640.000000pt" viewBox="0 0 640.000000 640.000000"
 preserveAspectRatio="xMidYMid meet">
<metadata>
Created by potrace 1.16, written by Peter Selinger 2001-2019
</metadata>
<g transform="translate(0.000000,640.000000) scale(0.100000,-0.100000)"
fill="#000000" stroke="none">
<path d="M0 3200 l0 -3200 3200 0 3200 0 0 3200 0 3200 -3200 0 -3200 0 0
-3200z m2300 2269 c58 -26 87 -53 116 -111 43 -85 29 -186 -36 -261 -144 -163
-410 -62 -410 157 0 167 179 284 330 215z m1155 -1319 c287 -73 537 -294 656
-579 53 -127 72 -243 66 -406 -3 -99 -11 -163 -26 -217 -91 -334 -346 -591
-686 -694 -83 -26 -103 -28 -270 -28 -168 0 -186 2 -268 27 -176 54 -304 135
-438 275 -109 113 -167 208 -215 350 -73 213 -73 422 -3 642 98 305 391 569
706 638 92 20 95 16 90 -88 -5 -101 -41 -182 -113 -250 -50 -47 -124 -89 -162
-91 -36 -2 35 -17 86 -18 99 -2 233 61 288 136 62 83 92 199 75 287 l-9 49 72
-6 c39 -4 107 -16 151 -27z m-1841 -1988 c158 -74 242 -213 234 -390 -3 -72
-8 -98 -35 -154 -94 -199 -339 -287 -538 -193 -250 119 -311 454 -118 649 119
121 308 158 457 88z"/>
<path d="M2956 3083 c-15 -4 -14 -8 13 -24 83 -50 117 -186 69 -279 -13 -25
-42 -59 -66 -77 -47 -36 -44 -41 23 -46 95 -8 189 53 219 140 20 58 20 87 0
146 -34 101 -154 166 -258 140z"/>
</g>
</svg>
