<?xml version="1.0" standalone="no"?>
<!DOCTYPE svg PUBLIC "-//W3C//DTD SVG 20010904//EN"
 "http://www.w3.org/TR/2001/REC-SVG-20010904/DTD/svg10.dtd">
<svg version="1.0" xmlns="http://www.w3.org/2000/svg"
 width="900.000000pt" height="540.000000pt" viewBox="0 0 900.000000 540.000000"
 preserveAspectRatio="xMidYMid meet">
<metadata>
Created by potrace 1.16, written by Peter Selinger 2001-2019
</metadata>
<g transform="translate(0.000000,540.000000) scale(0.100000,-0.100000)"
fill="#000000" stroke="none">
<path d="M4275 5393 c-434 -37 -755 -233 -919 -560 -37 -73 -80 -194 -91 -254
-5 -29 -18 -44 -68 -80 -69 -51 -107 -100 -143 -186 -23 -57 -24 -64 -24 -363
l0 -305 -47 -30 c-122 -77 -246 -226 -305 -366 -57 -137 -58 -147 -58 -1013 0
-699 2 -799 16 -847 22 -73 56 -129 108 -177 88 -82 189 -112 374 -112 l112 0
0 -425 c0 -464 0 -467 58 -529 15 -16 45 -37 67 -47 38 -18 89 -19 1094 -19
805 0 1063 3 1095 12 53 16 118 81 134 134 9 30 12 157 12 458 l0 416 108 0
c250 0 378 63 459 228 l38 76 0 835 0 836 -23 78 c-54 189 -176 357 -332 458
l-49 32 -3 316 -3 316 -32 65 c-34 69 -94 137 -154 176 -32 20 -38 31 -54 96
-45 185 -134 347 -260 474 -213 213 -528 318 -944 312 -69 -1 -144 -3 -166 -5z
m464 -428 c270 -53 430 -177 495 -384 55 -174 55 -438 0 -611 -82 -261 -310
-390 -714 -407 -478 -20 -762 136 -852 466 -31 111 -30 382 0 494 73 268 260
411 597 456 101 14 374 6 474 -14z m-985 -1659 c94 -54 259 -109 391 -133 141
-24 500 -24 640 1 133 23 291 77 394 132 l84 46 171 -4 c160 -3 175 -5 228
-30 108 -50 190 -152 217 -269 6 -25 11 -191 11 -381 l0 -338 -99 0 -100 0 -3
233 c-3 212 -5 235 -24 272 -76 146 -285 150 -361 6 l-23 -44 0 -980 c0 -928
-1 -979 -17 -972 -169 64 -378 70 -541 14 -30 -10 -57 -19 -59 -19 -1 0 -3
164 -3 365 0 408 0 405 -68 467 -85 76 -190 72 -273 -11 -29 -29 -51 -61 -58
-86 -7 -26 -11 -164 -11 -387 0 -192 -1 -348 -2 -348 -2 0 -25 9 -53 19 -153
58 -366 52 -541 -16 -11 -4 -13 156 -14 974 l0 978 -23 45 c-65 126 -234 147
-331 40 -19 -21 -39 -56 -45 -77 -6 -21 -11 -133 -11 -255 l0 -218 -101 0
-100 0 3 363 c3 345 4 365 25 415 43 107 127 186 235 223 43 15 85 18 219 19
l166 0 77 -44z m-524 -1281 l0 -105 -100 0 -100 0 0 105 0 105 100 0 100 0 0
-105z m2660 0 l0 -105 -100 0 -100 0 0 105 0 105 100 0 100 0 0 -105z m-2660
-410 l0 -105 -100 0 -100 0 0 105 0 105 100 0 100 0 0 -105z m2660 0 l0 -105
-100 0 -100 0 0 105 0 105 100 0 100 0 0 -105z m-1809 -941 c30 -9 80 -27 112
-41 l57 -26 0 -58 0 -59 -305 0 -305 0 0 59 0 59 74 31 c41 17 92 35 113 40
63 15 195 12 254 -5z m1018 1 c29 -7 82 -26 117 -41 l64 -27 0 -59 0 -58 -310
0 -310 0 0 54 c0 31 5 58 13 64 16 13 109 51 167 67 61 18 193 18 259 0z"/>
<path d="M4375 4784 c-170 -25 -326 -90 -418 -174 -34 -31 -67 -74 -84 -108
-27 -55 -28 -62 -28 -222 0 -150 2 -169 21 -205 27 -49 49 -70 97 -90 31 -13
105 -15 499 -15 450 0 463 1 506 21 26 13 54 38 70 62 27 40 27 42 27 221 0
213 -4 227 -100 321 -72 72 -189 134 -308 164 -78 20 -225 33 -282 25z"/>
<path d="M4165 2721 c-94 -43 -115 -95 -115 -284 0 -191 20 -246 105 -287 38
-18 62 -20 303 -20 292 0 306 2 359 63 44 50 53 91 53 242 0 146 -9 190 -47
236 -54 64 -79 69 -363 69 -227 0 -259 -2 -295 -19z"/>
</g>
</svg>
